<svg width="72" height="72" viewBox="0 0 72 72" fill="none" xmlns="http://www.w3.org/2000/svg">
<rect width="72" height="72" fill="white"/>
<path d="M45 67C58.2548 67 69 56.2548 69 43C69 29.7452 58.2548 19 45 19C31.7452 19 21 29.7452 21 43C21 56.2548 31.7452 67 45 67Z" stroke="#2F3343" stroke-width="2" stroke-linecap="round" stroke-linejoin="round"/>
<path d="M21 43H69" stroke="#2F3343" stroke-width="2" stroke-linecap="round" stroke-linejoin="round"/>
<path d="M44.9999 19C51.003 25.572 54.4145 34.1009 54.5999 43C54.4145 51.8991 51.003 60.428 44.9999 67C38.9968 60.428 35.5853 51.8991 35.3999 43C35.5853 34.1009 38.9968 25.572 44.9999 19V19Z" stroke="#2F3343" stroke-width="2" stroke-linecap="round" stroke-linejoin="round"/>
<path d="M10.2793 21.431C10.6129 21.7944 11.0815 22.0005 11.5718 22L18.5066 21.9904C19.0539 21.9897 19.5933 21.8601 20.0812 21.6122L35.5382 13.768C36.9587 13.047 38.2321 12.0179 39.0985 10.6701C40.0712 9.15705 40.1769 8.0621 39.7929 7.28857C39.4098 6.51451 38.4786 5.94605 36.6984 5.83023C35.1126 5.72716 33.5354 6.14474 32.1148 6.86514L26.8816 9.52097L15.2634 5.16136C15.1237 5.06725 14.9614 5.01216 14.7933 5.00179C14.6252 4.99143 14.4573 5.02615 14.3071 5.10239L10.8142 6.87524C10.2474 7.16266 10.1104 7.91919 10.5396 8.39096L18.8386 13.6027L13.3557 16.3855L9.51218 14.448C9.37976 14.3812 9.2335 14.3465 9.0852 14.3467C8.9369 14.3469 8.79073 14.3819 8.65848 14.449L6.52661 15.5312C5.972 15.8128 5.8259 16.547 6.23071 17.023L10.2793 21.431Z" fill="#D3D5DD" stroke="#2F3343" stroke-width="2"/>
<path d="M15 41C15 26.0883 27.0883 14 42 14" stroke="#2F3343" stroke-width="2" stroke-linecap="round" stroke-linejoin="round"/>
</svg>
