<svg width="72" height="72" viewBox="0 0 72 72" fill="none" xmlns="http://www.w3.org/2000/svg">
<g clip-path="url(#clip0)">
<rect width="72" height="72" fill="white"/>
<path fill-rule="evenodd" clip-rule="evenodd" d="M35.5855 5.77065C19.119 5.77065 5.77028 19.1194 5.77028 35.5859C5.77028 52.0524 19.119 65.4011 35.5855 65.4011C52.052 65.4011 65.4008 52.0524 65.4008 35.5859C65.4008 19.1194 52.052 5.77065 35.5855 5.77065ZM3.65295 35.5859C3.65295 17.95 17.9497 3.65332 35.5855 3.65332C53.2214 3.65332 67.5181 17.95 67.5181 35.5859C67.5181 53.2218 53.2214 67.5185 35.5855 67.5185C17.9497 67.5185 3.65295 53.2218 3.65295 35.5859Z" fill="#2F3343"/>
<path d="M35.6604 9.21445C38.1 9.21445 40.0777 7.23677 40.0777 4.79717C40.0777 2.35757 38.1 0.379883 35.6604 0.379883C33.2209 0.379883 31.2432 2.35757 31.2432 4.79717C31.2432 7.23677 33.2209 9.21445 35.6604 9.21445Z" fill="white"/>
<path fill-rule="evenodd" clip-rule="evenodd" d="M35.6604 1.43862C33.8055 1.43862 32.3018 2.94232 32.3018 4.79724C32.3018 6.65215 33.8055 8.15586 35.6604 8.15586C37.5153 8.15586 39.019 6.65215 39.019 4.79724C39.019 2.94232 37.5153 1.43862 35.6604 1.43862ZM30.1844 4.79724C30.1844 1.77295 32.6361 -0.678711 35.6604 -0.678711C38.6847 -0.678711 41.1363 1.77296 41.1363 4.79724C41.1363 7.82152 38.6847 10.2732 35.6604 10.2732C32.6361 10.2732 30.1844 7.82152 30.1844 4.79724Z" fill="#2F3343"/>
<path d="M35.6604 70.942C38.1 70.942 40.0777 68.9643 40.0777 66.5247C40.0777 64.0851 38.1 62.1074 35.6604 62.1074C33.2209 62.1074 31.2432 64.0851 31.2432 66.5247C31.2432 68.9643 33.2209 70.942 35.6604 70.942Z" fill="white"/>
<path fill-rule="evenodd" clip-rule="evenodd" d="M35.6604 63.1662C33.8055 63.1662 32.3018 64.6699 32.3018 66.5248C32.3018 68.3797 33.8055 69.8834 35.6604 69.8834C37.5153 69.8834 39.019 68.3797 39.019 66.5248C39.019 64.6699 37.5153 63.1662 35.6604 63.1662ZM30.1844 66.5248C30.1844 63.5005 32.6361 61.0488 35.6604 61.0488C38.6847 61.0488 41.1363 63.5005 41.1363 66.5248C41.1363 69.5491 38.6847 72.0007 35.6604 72.0007C32.6361 72.0007 30.1844 69.5491 30.1844 66.5248Z" fill="#2F3343"/>
<path d="M66.5241 40.0777C68.9637 40.0777 70.9414 38.1 70.9414 35.6604C70.9414 33.2209 68.9637 31.2432 66.5241 31.2432C64.0845 31.2432 62.1068 33.2209 62.1068 35.6604C62.1068 38.1 64.0845 40.0777 66.5241 40.0777Z" fill="white"/>
<path fill-rule="evenodd" clip-rule="evenodd" d="M66.524 32.3019C64.6691 32.3019 63.1654 33.8056 63.1654 35.6605C63.1654 37.5154 64.6691 39.0191 66.524 39.0191C68.379 39.0191 69.8827 37.5154 69.8827 35.6605C69.8827 33.8056 68.379 32.3019 66.524 32.3019ZM61.0481 35.6605C61.0481 32.6362 63.4998 30.1846 66.524 30.1846C69.5483 30.1846 72 32.6362 72 35.6605C72 38.6848 69.5483 41.1365 66.524 41.1365C63.4998 41.1365 61.0481 38.6848 61.0481 35.6605Z" fill="#2F3343"/>
<path d="M4.7968 40.0777C7.2364 40.0777 9.21409 38.1 9.21409 35.6604C9.21409 33.2209 7.2364 31.2432 4.7968 31.2432C2.3572 31.2432 0.379517 33.2209 0.379517 35.6604C0.379517 38.1 2.3572 40.0777 4.7968 40.0777Z" fill="white"/>
<path fill-rule="evenodd" clip-rule="evenodd" d="M4.79675 32.3019C2.94183 32.3019 1.43813 33.8056 1.43813 35.6605C1.43813 37.5154 2.94183 39.0191 4.79675 39.0191C6.65167 39.0191 8.15537 37.5154 8.15537 35.6605C8.15537 33.8056 6.65166 32.3019 4.79675 32.3019ZM-0.679199 35.6605C-0.679199 32.6362 1.77247 30.1846 4.79675 30.1846C7.82103 30.1846 10.2727 32.6362 10.2727 35.6605C10.2727 38.6848 7.82103 41.1365 4.79675 41.1365C1.77247 41.1365 -0.679199 38.6848 -0.679199 35.6605Z" fill="#2F3343"/>
<path d="M57.4886 61.9059C59.9282 61.9059 61.9059 59.9282 61.9059 57.4886C61.9059 55.049 59.9282 53.0713 57.4886 53.0713C55.049 53.0713 53.0713 55.049 53.0713 57.4886C53.0713 59.9282 55.049 61.9059 57.4886 61.9059Z" fill="white"/>
<path fill-rule="evenodd" clip-rule="evenodd" d="M57.4885 54.13C55.6336 54.13 54.1299 55.6337 54.1299 57.4886C54.1299 59.3436 55.6336 60.8473 57.4885 60.8473C59.3434 60.8473 60.8471 59.3436 60.8471 57.4886C60.8471 55.6337 59.3434 54.13 57.4885 54.13ZM52.0126 57.4886C52.0126 54.4644 54.4642 52.0127 57.4885 52.0127C60.5128 52.0127 62.9645 54.4644 62.9645 57.4886C62.9645 60.5129 60.5128 62.9646 57.4885 62.9646C54.4642 62.9646 52.0126 60.5129 52.0126 57.4886Z" fill="#2F3343"/>
<path d="M13.8321 18.2496C16.2717 18.2496 18.2494 16.2719 18.2494 13.8323C18.2494 11.3927 16.2717 9.41504 13.8321 9.41504C11.3925 9.41504 9.41479 11.3927 9.41479 13.8323C9.41479 16.2719 11.3925 18.2496 13.8321 18.2496Z" fill="white"/>
<path fill-rule="evenodd" clip-rule="evenodd" d="M13.832 10.4738C11.9771 10.4738 10.4734 11.9775 10.4734 13.8324C10.4734 15.6873 11.9771 17.191 13.832 17.191C15.6869 17.191 17.1906 15.6873 17.1906 13.8324C17.1906 11.9775 15.6869 10.4738 13.832 10.4738ZM8.35608 13.8324C8.35608 10.8081 10.8077 8.35645 13.832 8.35645C16.8563 8.35645 19.308 10.8081 19.308 13.8324C19.308 16.8567 16.8563 19.3083 13.832 19.3083C10.8077 19.3083 8.35608 16.8567 8.35608 13.8324Z" fill="#2F3343"/>
<path d="M13.8321 61.9059C16.2717 61.9059 18.2494 59.9282 18.2494 57.4886C18.2494 55.049 16.2717 53.0713 13.8321 53.0713C11.3925 53.0713 9.41479 55.049 9.41479 57.4886C9.41479 59.9282 11.3925 61.9059 13.8321 61.9059Z" fill="white"/>
<path fill-rule="evenodd" clip-rule="evenodd" d="M13.832 54.13C11.9771 54.13 10.4734 55.6337 10.4734 57.4886C10.4734 59.3436 11.9771 60.8473 13.832 60.8473C15.6869 60.8473 17.1906 59.3436 17.1906 57.4886C17.1906 55.6337 15.6869 54.13 13.832 54.13ZM8.35608 57.4886C8.35608 54.4644 10.8077 52.0127 13.832 52.0127C16.8563 52.0127 19.308 54.4644 19.308 57.4886C19.308 60.5129 16.8563 62.9646 13.832 62.9646C10.8077 62.9646 8.35608 60.5129 8.35608 57.4886Z" fill="#2F3343"/>
<path d="M57.4886 18.2496C59.9282 18.2496 61.9059 16.2719 61.9059 13.8323C61.9059 11.3927 59.9282 9.41504 57.4886 9.41504C55.049 9.41504 53.0713 11.3927 53.0713 13.8323C53.0713 16.2719 55.049 18.2496 57.4886 18.2496Z" fill="white"/>
<path fill-rule="evenodd" clip-rule="evenodd" d="M57.4885 10.4738C55.6336 10.4738 54.1299 11.9775 54.1299 13.8324C54.1299 15.6873 55.6336 17.191 57.4885 17.191C59.3434 17.191 60.8471 15.6873 60.8471 13.8324C60.8471 11.9775 59.3434 10.4738 57.4885 10.4738ZM52.0126 13.8324C52.0126 10.8081 54.4642 8.35645 57.4885 8.35645C60.5128 8.35645 62.9645 10.8081 62.9645 13.8324C62.9645 16.8567 60.5128 19.3083 57.4885 19.3083C54.4642 19.3083 52.0126 16.8567 52.0126 13.8324Z" fill="#2F3343"/>
<path fill-rule="evenodd" clip-rule="evenodd" d="M25.1621 44.6067C23.6978 42.6812 21.2687 42.0517 19.5795 43.1109L16.0609 38.4418L37.5488 21.7566L43.7835 16.8444L43.8193 16.8876L43.8894 16.8331L44.9904 18.301L47.7796 21.6671C46.3651 23.0711 46.3601 25.6152 47.8479 27.5386C49.3407 29.4421 51.7789 30.0355 53.4521 28.9513L57.0397 33.5676L41.0562 46.3641L41.0231 46.5192L29.6363 55.8357L25.1432 50.4786C26.5783 49.0958 26.6211 46.5521 25.1621 44.6067Z" fill="#D3D5DD"/>
<path fill-rule="evenodd" clip-rule="evenodd" d="M38.0633 27.9042L36.2278 25.5491L38.8563 23.5006L40.6917 25.8558L38.0633 27.9042Z" fill="white"/>
<path fill-rule="evenodd" clip-rule="evenodd" d="M25.284 37.9042L23.4485 35.5491L26.077 33.5006L27.9124 35.8558L25.284 37.9042Z" fill="white"/>
<path fill-rule="evenodd" clip-rule="evenodd" d="M41.0262 31.6528L39.184 29.3242L41.7975 27.2567L43.6397 29.5853L41.0262 31.6528Z" fill="white"/>
<path fill-rule="evenodd" clip-rule="evenodd" d="M28.2469 41.6528L26.4047 39.3242L29.0182 37.2567L30.8604 39.5853L28.2469 41.6528Z" fill="white"/>
<path fill-rule="evenodd" clip-rule="evenodd" d="M43.9751 35.4184L42.133 33.0898L44.7465 31.0223L46.5886 33.3509L43.9751 35.4184Z" fill="white"/>
<path fill-rule="evenodd" clip-rule="evenodd" d="M31.1958 45.4184L29.3537 43.0898L31.9672 41.0223L33.8094 43.3509L31.1958 45.4184Z" fill="white"/>
<path fill-rule="evenodd" clip-rule="evenodd" d="M46.9562 39.1988L45.0875 36.8635L47.6894 34.7814L49.5582 37.1167L46.9562 39.1988Z" fill="white"/>
<path fill-rule="evenodd" clip-rule="evenodd" d="M34.1769 49.1988L32.3082 46.8635L34.9101 44.7814L36.7789 47.1167L34.1769 49.1988Z" fill="white"/>
</g>
<defs>
<clipPath id="clip0">
<rect width="72" height="72" fill="white"/>
</clipPath>
</defs>
</svg>
