<svg width="72" height="72" viewBox="0 0 72 72" fill="none" xmlns="http://www.w3.org/2000/svg">
<g clip-path="url(#clip0)">
<rect width="72" height="72" fill="white"/>
<path d="M38.9263 27.8701C38.9263 28.7968 38.871 29.4621 39.4846 30.1984C40.016 30.8361 40.8957 31.3804 41.6222 31.7642C43.0931 32.5412 44.2236 33.0913 45.0602 34.5554C45.4969 35.3196 45.8515 36.0683 46.3741 36.7884C46.8677 37.4685 47.5153 37.9974 48.0216 38.6537C48.767 39.62 49.6992 40.3585 50.5609 41.2203C51.016 41.6754 51.1036 42.2626 51.4255 42.7929C51.646 43.156 51.8624 43.4524 52.1063 43.8072C52.6856 44.6499 53.9122 45.1298 54.6388 45.8564C55.3119 46.5295 56.0535 47.1484 56.756 47.7898C57.1802 48.1771 57.5794 48.6443 58.1108 48.8859C58.4304 49.0311 58.8325 48.929 59.1728 49.0424C59.514 49.1562 59.7217 49.419 60.0034 49.5598" stroke="#2F3343" stroke-width="2" stroke-linecap="round"/>
<path d="M1 55.2255L18.425 24.083L23.9861 25.566L30.8449 24.083L36.7768 25.566L42.5234 24.083L48.826 25.566L54.9433 24.083L71.4414 54.2987L59.9483 56.1524L48.0845 54.2987L36.7768 56.1524L24.913 54.2987L12.6784 56.1524L1 55.2255Z" stroke="#2F3343" stroke-width="2" stroke-linecap="round" stroke-linejoin="round"/>
<path d="M23.986 25.9365L13.0491 55.9668" stroke="#2F3343" stroke-width="2" stroke-linecap="round" stroke-linejoin="round"/>
<path d="M30.8449 24.083L25.0984 54.1133" stroke="#2F3343" stroke-width="2" stroke-linecap="round" stroke-linejoin="round"/>
<path d="M36.5914 25.3809V56.1526" stroke="#2F3343" stroke-width="2" stroke-linecap="round" stroke-linejoin="round"/>
<path d="M42.1526 24.2686L47.8991 53.9281" stroke="#2F3343" stroke-width="2" stroke-linecap="round" stroke-linejoin="round"/>
<path d="M48.4552 25.752L60.1336 55.9676" stroke="#2F3343" stroke-width="2" stroke-linecap="round" stroke-linejoin="round"/>
<path d="M27.8807 19.0064C27.8807 25.2337 19.8742 30.5713 19.8742 30.5713C19.8742 30.5713 11.8678 25.2337 11.8678 19.0064C11.8678 16.883 12.7113 14.8465 14.2128 13.345C15.7143 11.8435 17.7508 11 19.8742 11C21.9977 11 24.0341 11.8435 25.5356 13.345C27.0371 14.8465 27.8807 16.883 27.8807 19.0064Z" fill="#D3D5DD" stroke="#2F3343" stroke-width="2" stroke-linecap="round" stroke-linejoin="round"/>
<path d="M19.8745 21.6755C21.3484 21.6755 22.5433 20.4806 22.5433 19.0067C22.5433 17.5328 21.3484 16.3379 19.8745 16.3379C18.4006 16.3379 17.2057 17.5328 17.2057 19.0067C17.2057 20.4806 18.4006 21.6755 19.8745 21.6755Z" fill="white" stroke="#2F3343" stroke-width="2" stroke-linecap="round" stroke-linejoin="round"/>
<path d="M20 31C20.8315 32.1406 21.9799 33.6971 22.4004 35.0172C22.6123 35.6823 24.6138 35.4594 25.3103 35.5945C27.1764 35.9564 28.4276 37.1059 30.3793 37.4948C31.3174 37.6818 32.2867 38.1152 33.0881 38.5773C34.1932 39.2145 35.6948 39.4933 36.6552 40.3093C37.7032 41.1998 38.1979 42.1675 38.9617 43.244C40.4457 45.3356 44.2634 44.9169 46.431 46.2629C48.1364 47.3218 49.6835 48.4282 51.433 49.4021C53.1141 50.338 55.9527 50.7358 57.8966 50.9296C59.3804 51.0774 60.6309 52 62 52" stroke="#2F3343" stroke-width="2" stroke-linecap="round"/>
<path d="M47.0129 16.0064C47.0129 22.2337 39.0064 27.5713 39.0064 27.5713C39.0064 27.5713 31 22.2337 31 16.0064C31 13.883 31.8435 11.8465 33.345 10.345C34.8465 8.84353 36.883 8 39.0064 8C41.1299 8 43.1663 8.84353 44.6678 10.345C46.1693 11.8465 47.0129 13.883 47.0129 16.0064Z" fill="#D3D5DD" stroke="#2F3343" stroke-width="2" stroke-linecap="round" stroke-linejoin="round"/>
<path d="M39.0067 18.6755C40.4806 18.6755 41.6755 17.4806 41.6755 16.0067C41.6755 14.5328 40.4806 13.3379 39.0067 13.3379C37.5328 13.3379 36.3379 14.5328 36.3379 16.0067C36.3379 17.4806 37.5328 18.6755 39.0067 18.6755Z" fill="white" stroke="#2F3343" stroke-width="2" stroke-linecap="round" stroke-linejoin="round"/>
<path d="M70.0129 41.0064C70.0129 47.2337 62.0064 52.5713 62.0064 52.5713C62.0064 52.5713 54 47.2337 54 41.0064C54 38.883 54.8435 36.8465 56.345 35.345C57.8465 33.8435 59.883 33 62.0064 33C64.1299 33 66.1663 33.8435 67.6678 35.345C69.1693 36.8465 70.0129 38.883 70.0129 41.0064Z" fill="#D3D5DD" stroke="#2F3343" stroke-width="2" stroke-linecap="round" stroke-linejoin="round"/>
<path d="M62.0067 43.6755C63.4806 43.6755 64.6755 42.4806 64.6755 41.0067C64.6755 39.5328 63.4806 38.3379 62.0067 38.3379C60.5328 38.3379 59.3379 39.5328 59.3379 41.0067C59.3379 42.4806 60.5328 43.6755 62.0067 43.6755Z" fill="white" stroke="#2F3343" stroke-width="2" stroke-linecap="round" stroke-linejoin="round"/>
</g>
<defs>
<clipPath id="clip0">
<rect width="72" height="72" fill="white"/>
</clipPath>
</defs>
</svg>
