<svg width="72" height="72" viewBox="0 0 72 72" fill="none" xmlns="http://www.w3.org/2000/svg">
<g clip-path="url(#clip0)">
<path d="M66.6268 20.1947C64.2022 21.7657 60.6692 20.9059 58.5061 18.1476C56.3502 15.3605 56.3574 11.674 58.407 9.63961L53.2084 2.9504L35.9999 16L27.9834 53.6373L31.9706 58.7917L71.8254 26.8839L66.6268 20.1947Z" fill="#D3D5DD"/>
<path fill-rule="evenodd" clip-rule="evenodd" d="M46.3833 16.567L44.386 14.0042L47.2462 11.7752L49.2434 14.338L46.3833 16.567Z" fill="white"/>
<path fill-rule="evenodd" clip-rule="evenodd" d="M49.6073 20.6456L47.6028 18.1117L50.4466 15.8619L52.4512 18.3958L49.6073 20.6456Z" fill="white"/>
<path fill-rule="evenodd" clip-rule="evenodd" d="M52.816 24.7432L50.8115 22.2093L53.6554 19.9596L55.6599 22.4934L52.816 24.7432Z" fill="white"/>
<path fill-rule="evenodd" clip-rule="evenodd" d="M56.0597 28.8561L54.0263 26.315L56.8576 24.0494L58.891 26.5905L56.0597 28.8561Z" fill="white"/>
<path fill-rule="evenodd" clip-rule="evenodd" d="M59.2541 32.9352L57.2568 30.3724L60.117 28.1434L62.1143 30.7061L59.2541 32.9352Z" fill="white"/>
<path fill-rule="evenodd" clip-rule="evenodd" d="M59.3251 32.9291L57.299 30.3591L60.1466 28.1141L62.1728 30.6841L59.3251 32.9291Z" fill="white"/>
<path d="M23.1279 28.8649L23.625 28.5757L23.625 28.0006L23.625 15.5001C23.625 13.7786 24.3281 11.3253 25.5032 9.30241C26.0859 8.29932 26.7562 7.45223 27.4622 6.86658C28.1676 6.28145 28.8536 6 29.5 6C30.1464 6 30.8324 6.28145 31.5378 6.86658C32.2438 7.45223 32.9141 8.29932 33.4968 9.30241C34.6719 11.3253 35.375 13.7786 35.375 15.5001L35.375 28.0006L35.375 28.5757L35.8721 28.8649L55.6307 40.3611C55.8537 40.491 56 40.739 56 41.0163L56 48.1804C56 48.7006 55.5231 49.029 55.0879 48.9024L36.6543 43.5397L35.375 43.1675L35.375 44.4999L35.375 55.7502L35.375 56.2448L35.7681 56.545L41.9556 61.27L41.9559 61.2703C42.1373 61.4087 42.25 61.6313 42.25 61.8753L42.25 66.2492C42.25 66.7539 41.8012 67.0797 41.3763 66.9813L29.7845 63.5416L29.5 63.4572L29.2155 63.5416L17.6238 66.9813C17.1988 67.0797 16.75 66.7539 16.75 66.2492L16.75 61.8753C16.75 61.6321 16.863 61.4085 17.0441 61.2703L17.0444 61.27L23.2319 56.545L23.625 56.2448L23.625 55.7502L23.625 44.4999L23.625 43.1675L22.3457 43.5397L3.91101 48.9024C3.47648 49.0288 3 48.7013 3 48.1804L3 41.0163L3 41.0162C2.99999 40.8803 3.0353 40.7479 3.10105 40.6324C3.16673 40.5171 3.25988 40.4237 3.36927 40.36L23.1279 28.8649Z" fill="white" stroke="#2F3343" stroke-width="2"/>
</g>
<defs>
<clipPath id="clip0">
<rect width="72" height="72" fill="white"/>
</clipPath>
</defs>
</svg>
