<svg width="32" height="32" viewBox="0 0 32 32" fill="none" xmlns="http://www.w3.org/2000/svg">
<path d="M28.0849 5.60322L28.0421 5.57647L22.6301 2.91016L16.7886 10.6987L19.4761 14.2823C19.3957 15.6337 18.8226 16.9088 17.8653 17.8661C16.9079 18.8234 15.6329 19.3965 14.2814 19.4769L10.6979 16.7894L2.90942 22.6307L5.55355 27.9975L5.5758 28.0428L5.60261 28.0856C5.74372 28.313 5.94066 28.5004 6.1747 28.6301C6.40874 28.7598 6.67209 28.8275 6.93967 28.8267H8.33617C11.0269 28.8267 13.6913 28.2967 16.1773 27.267C18.6632 26.2373 20.922 24.728 22.8246 22.8253C24.7273 20.9227 26.2365 18.6639 27.2663 16.178C28.296 13.692 28.8259 11.0276 28.8259 8.33684V6.94028C28.8268 6.6727 28.7591 6.40936 28.6294 6.17532C28.4997 5.94127 28.3123 5.74433 28.0849 5.60322ZM26.8259 8.33684C26.8259 18.5322 18.5314 26.8267 8.33617 26.8267H7.20617L5.43705 23.2352L10.6983 19.2893L13.6275 21.4861H13.9608C15.9559 21.4839 17.8686 20.6903 19.2793 19.2796C20.69 17.8689 21.4836 15.9562 21.4858 13.9611V13.6278L19.289 10.6987L23.2345 5.43772L26.8259 7.20716V8.33684Z" fill="#9297A9"/>
</svg>
