<svg width="144" height="64" viewBox="0 0 144 64" fill="none" xmlns="http://www.w3.org/2000/svg">
<path fill-rule="evenodd" clip-rule="evenodd" d="M126.673 28.1775V30.6384H119.948V40.7897H116.011V30.6384H109.286V28.1775H126.673Z" fill="white"/>
<path fill-rule="evenodd" clip-rule="evenodd" d="M102.201 40.7897H105.532H106.138V28.1775H102.201V28.5466V40.7897Z" fill="white"/>
<path d="M16.175 23.1941C15.5086 21.8406 14.1759 20.9792 12.6614 20.9792H12.6008C11.1468 20.9792 9.75348 21.779 9.08709 23.1326L0 40.7896H4.42239L7.02735 35.6832H17.8107L20.2945 40.7896H24.8381L16.175 23.1941ZM8.05722 33.8991L12.6614 25.0398L17.0232 33.8991H8.05722Z" fill="white"/>
<path d="M41.5579 30.3923C41.255 29.1003 40.104 28.116 38.7106 28.116H30.1688C29.8658 28.116 29.5629 28.1775 29.3206 28.239C28.1696 28.4851 27.2003 29.3464 26.7157 30.3923C26.4733 30.8845 26.3522 31.4382 26.3522 31.9919V36.9138C26.3522 37.4675 26.4733 38.0212 26.7157 38.5133C27.2003 39.5592 28.1696 40.4206 29.3206 40.6667C29.6235 40.7282 29.8658 40.7897 30.1688 40.7897H37.8625V44.7887H41.6791V31.1306C41.6791 30.8845 41.6185 30.6384 41.5579 30.3923ZM37.8625 38.5749H31.6833C30.4111 38.5749 29.3206 37.529 29.3206 36.1755V32.8532C29.3206 31.5613 30.3505 30.4538 31.6833 30.4538H37.8625V38.5749Z" fill="white"/>
<path d="M100.685 28.1775L94.021 39.3131C93.4757 40.2975 92.4459 40.8512 91.3554 40.8512C90.265 40.8512 89.2351 40.2975 88.6899 39.3131L81.7837 28.1775H85.9032L91.3554 37.2214L96.6259 28.1775H100.685Z" fill="white"/>
<path d="M61.3681 28.1775V37.8366C61.3681 38.0827 61.3075 38.3288 61.2469 38.5749C61.0046 39.6823 60.0959 40.6051 58.9448 40.7897C58.7631 40.8512 58.5814 40.8512 58.3996 40.8512H48.2827C48.1009 40.8512 47.9192 40.8512 47.7374 40.7897C46.5864 40.6051 45.6777 39.6823 45.4354 38.5749C45.3748 38.3288 45.3142 38.0827 45.3142 37.8366V28.1775H49.0702V37.1598C49.0702 37.9596 49.676 38.5749 50.4636 38.5749H56.1581C56.9457 38.5749 57.5515 37.9596 57.5515 37.1598V28.1775H61.3681Z" fill="white"/>
<path d="M79.8447 30.3923C79.2389 29.0388 77.9061 28.116 76.3916 28.116H65.7294V30.3923H76.3916V33.4069H67.3651C66.1534 33.4069 65.063 34.2067 64.6389 35.3142C64.5178 35.6833 64.3966 36.0524 64.3966 36.4216V37.7751C64.3966 38.0212 64.4572 38.2673 64.5178 38.5133C64.8207 39.8053 65.9717 40.7897 67.3651 40.7897H80.1476V31.9919C80.2081 31.4382 80.087 30.8845 79.8447 30.3923ZM76.3916 38.5749H69.7883C69.6671 38.5749 69.6065 38.5749 69.4854 38.5749C68.7584 38.4518 68.2132 37.7751 68.2132 36.9753C68.2132 36.2985 68.6372 35.7448 69.1825 35.4987C69.3642 35.4372 69.546 35.3757 69.7883 35.3757H76.3916V38.5749Z" fill="white"/>
<path d="M143.638 30.3923C143.032 29.0388 141.699 28.116 140.185 28.116H129.523V30.3923H140.185V33.4069H131.158C129.947 33.4069 128.856 34.2067 128.432 35.3142C128.311 35.6833 128.19 36.0524 128.19 36.4216V37.7751C128.19 38.0212 128.251 38.2673 128.311 38.5133C128.614 39.8053 129.765 40.7897 131.158 40.7897H143.941V31.9919C144.001 31.4382 143.88 30.8845 143.638 30.3923ZM140.185 38.5749H133.582C133.46 38.5749 133.4 38.5749 133.279 38.5749C132.552 38.4518 132.007 37.7751 132.007 36.9753C132.007 36.2985 132.431 35.7448 132.976 35.4987C133.158 35.4372 133.339 35.3757 133.582 35.3757H140.185V38.5749Z" fill="white"/>
</svg>
