<svg width="23" height="24" viewBox="0 0 23 24" fill="none" xmlns="http://www.w3.org/2000/svg">
<path fill-rule="evenodd" clip-rule="evenodd" d="M3.80952 3.22503C4.01452 3.02 4.26077 2.86091 4.53194 2.75831C4.80311 2.65571 5.093 2.61194 5.38237 2.62991C5.67175 2.64788 5.95399 2.72717 6.21038 2.86253C6.46678 2.99789 6.69146 3.18622 6.86952 3.41503L8.97077 6.11753C9.35702 6.61253 9.49327 7.25878 9.34077 7.86753L8.69952 10.4338C8.66617 10.5669 8.66787 10.7065 8.70445 10.8388C8.74104 10.9711 8.81125 11.0917 8.90827 11.1888L11.7883 14.0675C11.8854 14.1645 12.006 14.2348 12.1383 14.2713C12.2706 14.3079 12.4101 14.3096 12.5433 14.2763L15.1083 13.635C15.4091 13.5599 15.7231 13.5542 16.0265 13.6183C16.3299 13.6824 16.6148 13.8146 16.8595 14.005L19.562 16.1063C20.5333 16.8613 20.6233 18.2975 19.7533 19.1663L18.5408 20.3788C17.6745 21.245 16.3783 21.6263 15.1695 21.2013C12.0775 20.113 9.27021 18.3425 6.95577 16.0213C4.63407 13.707 2.8632 10.8996 1.77452 7.80753C1.34952 6.59878 1.73077 5.30253 2.59702 4.43503L3.80952 3.22378V3.22503Z" fill="#9297A9"/>
</svg>
